<svg width="72" height="101" viewBox="0 0 72 101" fill="none" xmlns="http://www.w3.org/2000/svg">
<path d="M71.4272 95.2619C71.4272 97.8465 69.3132 99.9471 66.7014 99.9471L5.58908 100.016C3.51008 100.016 1.74554 98.6937 1.10787 96.8524C0.941895 96.377 0.854542 95.8756 0.854542 95.3483L0.758453 8.13573C0.758453 5.55107 2.8724 3.4505 5.48426 3.4505L61.6 3.38999L66.5966 3.38135C69.2084 3.38135 71.3311 5.47327 71.3311 8.05793L71.4272 95.2619Z" fill="url(#paint0_linear_0_113)"/>
<path d="M65.0941 94.7606L7.18765 94.8211C5.78126 94.8211 4.64567 93.6973 4.64567 92.3056L4.55832 11.144C4.55832 9.75227 5.69391 8.6285 7.1003 8.6285L64.998 8.56799C66.4044 8.56799 67.54 9.69176 67.54 11.0835L67.6273 92.2451C67.6361 93.6282 66.5005 94.7606 65.0941 94.7606Z" fill="white"/>
<path d="M56.9615 15.2586L14.7262 15.3105C13.3286 15.3105 12.1842 14.1867 12.1842 12.8036L12.1755 5.83631C12.1755 4.45322 13.3111 3.32081 14.7087 3.32081L56.9528 3.27759C58.3504 3.27759 59.4947 4.40135 59.4947 5.78444L59.5035 12.7518C59.4947 14.1349 58.3591 15.2586 56.9615 15.2586ZM14.7087 4.60017C14.0274 4.60017 13.4683 5.15341 13.4683 5.82766L13.4771 12.795C13.4771 13.4692 14.0361 14.0225 14.7175 14.0225L56.9615 13.9793C57.6428 13.9793 58.2019 13.426 58.2019 12.7518L58.1932 5.78444C58.1932 5.11018 57.6341 4.55695 56.9528 4.55695L14.7087 4.60017Z" fill="url(#paint1_linear_0_113)"/>
<path d="M55.7648 6.29449L16.3248 6.33771C15.888 6.33771 15.5386 5.99194 15.5386 5.55972V1.78215C15.5386 1.34993 15.888 1.00416 16.3248 1.00416L55.756 0.960938C56.1928 0.960938 56.5422 1.30671 56.5422 1.73893V5.5165C56.551 5.94871 56.2015 6.29449 55.7648 6.29449Z" fill="url(#paint2_linear_0_113)"/>
<path d="M16.3597 6.33775L55.7298 6.29453C56.1841 6.29453 56.5509 5.93147 56.5509 5.48196V3.63208L15.5299 3.6753V5.52519C15.5299 5.97469 15.9055 6.33775 16.3597 6.33775Z" fill="#58D6F4"/>
<defs>
<linearGradient id="paint0_linear_0_113" x1="-9.02784" y1="37.1891" x2="81.0314" y2="66.7591" gradientUnits="userSpaceOnUse">
<stop stop-color="#6CBCFC"/>
<stop offset="0.1713" stop-color="#5EABFC"/>
<stop offset="0.4084" stop-color="#509AFC"/>
<stop offset="0.6698" stop-color="#4890FC"/>
<stop offset="1" stop-color="#458DFC"/>
</linearGradient>
<linearGradient id="paint1_linear_0_113" x1="-4.74645" y1="-21.3246" x2="59.2416" y2="9.81482" gradientUnits="userSpaceOnUse">
<stop stop-color="#CFE9FF"/>
<stop offset="1" stop-color="#A1D6FB"/>
</linearGradient>
<linearGradient id="paint2_linear_0_113" x1="15.5286" y1="3.65033" x2="56.5502" y2="3.65033" gradientUnits="userSpaceOnUse">
<stop stop-color="#B0F4FF"/>
<stop offset="1" stop-color="#69DCFC"/>
</linearGradient>
</defs>
</svg>
